<svg class="svg_320" id="SVGDoc2" width="320" height="294" xmlns="http://www.w3.org/2000/svg" version="1.1" xmlns:xlink="http://www.w3.org/1999/xlink" viewBox="0 0 320 294"><defs><linearGradient id="LinearGradient1067" gradientUnits="userSpaceOnUse" x1="132.00141525268555" y1="389.9946041107178" x2="222.00361251831055" y2="-0.026025772094726562"><stop stop-opacity="1" stop-color="#ff8f5a" offset="0"></stop><stop stop-opacity="1" stop-color="#ff2f96" offset="0.99"></stop><stop stop-opacity="1" stop-color="#ff2f96" offset="1"></stop></linearGradient></defs><g><g clip-path="url(#clip-4)"><title>Ellipse 1</title><path d="M143.92046,20.25288c54.56205,-25.79309 106.05307,-25.87254 149.10246,-6.51058c43.16046,19.20476 77.87924,57.85073 101.46185,105.87859c22.62896,48.50509 22.60508,100.60495 4.12376,142.75065c-18.73732,42.77413 -49.9235,75.0224 -92.42102,98.03772c-22.50681,11.58851 -46.16423,19.52742 -76.2393,24.40064c-29.67857,4.80222 -65.77482,6.53856 -104.01846,4.0613c-75.89451,-4.76503 -160.95316,-27.13596 -178.8908,-77.5962c-10.16518,-25.05592 -3.78437,-53.77816 8.85393,-82.68259c12.84561,-28.94668 31.9487,-58.07554 52.0059,-84.91946c20.26457,-26.88617 41.48327,-51.48721 63.32829,-72.35093c22.05235,-20.90579 44.73097,-38.07427 72.69339,-51.06913z" fill="#6055c4" fill-opacity="1"></path><path d="M143.92046,20.25288c54.56205,-25.79309 106.05307,-25.87254 149.10246,-6.51058c43.16046,19.20476 77.87924,57.85073 101.46185,105.87859c22.62896,48.50509 22.60508,100.60495 4.12376,142.75065c-18.73732,42.77413 -49.9235,75.0224 -92.42102,98.03772c-22.50681,11.58851 -46.16423,19.52742 -76.2393,24.40064c-29.67857,4.80222 -65.77482,6.53856 -104.01846,4.0613c-75.89451,-4.76503 -160.95316,-27.13596 -178.8908,-77.5962c-10.16518,-25.05592 -3.78437,-53.77816 8.85393,-82.68259c12.84561,-28.94668 31.9487,-58.07554 52.0059,-84.91946c20.26457,-26.88617 41.48327,-51.48721 63.32829,-72.35093c22.05235,-20.90579 44.73097,-38.07427 72.69339,-51.06913z" fill="url(#LinearGradient1067)"></path></g></g></svg>