<svg class="svg_1024" id="SVGDoc" width="547" height="525" xmlns="http://www.w3.org/2000/svg" version="1.1" xmlns:xlink="http://www.w3.org/1999/xlink" viewBox="0 0 547 525"><defs><linearGradient id="LinearGradient1015" gradientUnits="userSpaceOnUse" x1="387.002721786499" y1="629.9911499023438" x2="532.0070552825928" y2="0.0157470703125"><stop stop-opacity="1" stop-color="#ff8f5a" offset="0"></stop><stop stop-opacity="1" stop-color="#ff2f96" offset="0.99"></stop><stop stop-opacity="1" stop-color="#ff2f96" offset="1"></stop></linearGradient></defs><g><g clip-path="url(#clip-4)"><title>Ellipse 1</title><path d="M394.81891,32.77108c106.68628,-41.66199 207.36761,-41.79038 291.54291,-10.51639c84.39252,31.02028 152.27881,93.44294 198.39026,171.01919c44.24689,78.34721 44.2002,162.50083 8.06329,230.57616c-36.63739,69.09019 -97.61633,121.17882 -180.71252,158.35389c-44.00806,18.71827 -90.26587,31.54161 -149.0722,39.41291c-58.03107,7.7566 -128.61072,10.56116 -203.38928,6.55979c-148.39801,-7.6967 -314.71484,-43.83094 -349.78864,-125.33599c-19.87616,-40.47131 -7.39966,-86.86455 17.31226,-133.55198c25.11725,-46.75571 62.46991,-93.80562 101.68817,-137.16511c39.62372,-43.42737 81.11304,-83.16411 123.82703,-116.86383c43.11938,-33.768 87.46332,-61.49878 142.13873,-82.48863z" fill="#6055c4" fill-opacity="1"></path><path d="M394.81891,32.77108c106.68628,-41.66199 207.36761,-41.79038 291.54291,-10.51639c84.39252,31.02028 152.27881,93.44294 198.39026,171.01919c44.24689,78.34721 44.2002,162.50083 8.06329,230.57616c-36.63739,69.09019 -97.61633,121.17882 -180.71252,158.35389c-44.00806,18.71827 -90.26587,31.54161 -149.0722,39.41291c-58.03107,7.7566 -128.61072,10.56116 -203.38928,6.55979c-148.39801,-7.6967 -314.71484,-43.83094 -349.78864,-125.33599c-19.87616,-40.47131 -7.39966,-86.86455 17.31226,-133.55198c25.11725,-46.75571 62.46991,-93.80562 101.68817,-137.16511c39.62372,-43.42737 81.11304,-83.16411 123.82703,-116.86383c43.11938,-33.768 87.46332,-61.49878 142.13873,-82.48863z" fill="url(#LinearGradient1015)"></path></g></g></svg>